<svg width="215" height="154" viewBox="0 0 215 154" fill="none" xmlns="http://www.w3.org/2000/svg">
<g id="01">
<path d="M62.798 154C49.8272 154 38.6471 150.934 29.2577 144.801C19.8684 138.619 12.6328 129.758 7.55089 118.216C2.46902 106.627 -0.0477138 92.6946 0.000684886 76.4205C0.0490841 60.1464 2.59002 46.3352 7.62349 34.9868C12.7054 23.5902 19.9168 14.9219 29.2577 8.98213C38.6471 2.99404 49.8272 0 62.798 0C75.7689 0 86.949 2.99404 96.3384 8.98213C105.776 14.9219 113.036 23.5902 118.118 34.9868C123.2 46.3835 125.716 60.1947 125.668 76.4205C125.668 92.7429 123.127 106.699 118.045 118.289C112.963 129.879 105.728 138.74 96.3384 144.873C86.9974 150.958 75.8173 154 62.798 154ZM62.798 124.663C70.5418 124.663 76.8095 120.728 81.601 112.856C86.3924 104.936 88.764 92.7912 88.7156 76.4205C88.7156 65.6999 87.6266 56.8627 85.4487 49.9088C83.2707 42.9066 80.2458 37.6911 76.3739 34.2625C72.502 30.8338 67.9767 29.1195 62.798 29.1195C55.1026 29.1195 48.8834 33.0069 44.1403 40.7818C39.3973 48.5083 37.0015 60.3879 36.9531 76.4205C36.9047 87.286 37.9453 96.2923 40.0748 103.439C42.2528 110.586 45.3019 115.923 49.2222 119.448C53.1425 122.925 57.6678 124.663 62.798 124.663Z" fill="#00A2E8" fill-opacity="0.15"/>
<path d="M215 2.02822V150.378H179.137V35.4939H178.265L145.015 55.7761V24.7733L181.677 2.02822H215Z" fill="#00A2E8" fill-opacity="0.15"/>
</g>
</svg>
