<svg width="240" height="148" viewBox="0 0 240 148" fill="none" xmlns="http://www.w3.org/2000/svg">
<g id="02">
<path d="M57.9766 148C45.9187 147.954 35.5433 145 26.8505 139.138C18.2043 133.277 11.5445 124.787 6.87088 113.669C2.24402 102.551 -0.0460348 89.1769 0.000701037 73.5465C0.000701037 57.9627 2.31413 44.6815 6.94098 33.703C11.6146 22.7246 18.2744 14.3744 26.9206 8.65259C35.6134 2.88424 45.9654 6.10352e-05 57.9766 6.10352e-05C69.9877 6.10352e-05 80.3163 2.88424 88.9625 8.65259C97.6553 14.4209 104.339 22.7943 109.012 33.7728C113.686 44.7048 115.999 57.9627 115.952 73.5465C115.952 89.2234 113.616 102.621 108.942 113.739C104.315 124.857 97.6787 133.347 89.0326 139.208C80.3864 145.069 70.0344 148 57.9766 148ZM57.9766 122.95C66.2021 122.95 72.7685 118.833 77.6757 110.599C82.583 102.365 85.0133 90.0142 84.9665 73.5465C84.9665 62.7076 83.8449 53.6829 81.6016 46.4725C79.405 39.262 76.2737 33.8426 72.2076 30.2141C68.1883 26.5856 63.4447 24.7714 57.9766 24.7714C49.7978 24.7714 43.2548 28.8418 38.3475 36.9826C33.4402 45.1234 30.9632 57.3114 30.9165 73.5465C30.9165 84.525 32.0148 93.6892 34.2114 101.039C36.4547 108.343 39.6094 113.832 43.6754 117.507C47.7414 121.135 52.5085 122.95 57.9766 122.95Z" fill="#00A2E8" fill-opacity="0.15"/>
<path d="M137.597 144.86V123.089L188.703 75.9887C193.049 71.802 196.694 68.034 199.639 64.6846C202.63 61.3353 204.897 58.0557 206.439 54.8459C207.981 51.5896 208.752 48.0774 208.752 44.3094C208.752 40.1226 207.794 36.5174 205.878 33.4937C203.962 30.4234 201.345 28.0742 198.026 26.4461C194.708 24.7714 190.946 23.9341 186.74 23.9341C182.347 23.9341 178.514 24.8179 175.243 26.5856C171.971 28.3534 169.447 30.8886 167.672 34.1915C165.896 37.4943 165.008 41.4252 165.008 45.984H136.195C136.195 36.6337 138.321 28.5162 142.574 21.6314C146.827 14.7466 152.786 9.42015 160.451 5.65211C168.116 1.88408 176.949 6.10352e-05 186.95 6.10352e-05C197.232 6.10352e-05 206.182 1.8143 213.8 5.44278C221.465 9.02474 227.423 14.0023 231.676 20.3754C235.929 26.7484 238.056 34.0519 238.056 42.2858C238.056 47.682 236.981 53.0084 234.831 58.265C232.728 63.5217 228.966 69.3598 223.544 75.7794C218.123 82.1525 210.482 89.8049 200.62 98.7365L179.659 119.182V120.158H239.949V144.86H137.597Z" fill="#00A2E8" fill-opacity="0.15"/>
</g>
</svg>
