<svg width="229" height="137" viewBox="0 0 229 137" fill="none" xmlns="http://www.w3.org/2000/svg">
<g id="03">
<path d="M53.9902 137C42.7614 136.957 33.0995 134.223 25.0043 128.797C16.9526 123.371 10.7507 115.512 6.39845 105.221C2.08973 94.929 -0.0428696 82.5488 0.000652835 68.0801C0.000652835 53.6546 2.15501 41.3605 6.46373 31.198C10.816 21.0355 17.0179 13.306 25.0696 8.00943C33.1647 2.66981 42.805 0 53.9902 0C65.1755 0 74.794 2.66981 82.8456 8.00943C90.9408 13.349 97.1645 21.1001 101.517 31.2626C105.869 41.382 108.023 53.6546 107.98 68.0801C107.98 82.5919 105.804 94.9935 101.451 105.285C97.1427 115.577 90.9625 123.436 82.9109 128.861C74.8592 134.287 65.219 137 53.9902 137ZM53.9902 113.811C61.6502 113.811 67.7651 110 72.3349 102.379C76.9048 94.7567 79.168 83.3239 79.1244 68.0801C79.1244 58.0468 78.0799 49.6929 75.9908 43.0184C73.9453 36.3439 71.0293 31.3272 67.2428 27.9684C63.4999 24.6096 59.0824 22.9302 53.9902 22.9302C46.3738 22.9302 40.2807 26.6981 35.7108 34.2339C31.141 41.7696 28.8343 53.0517 28.7907 68.0801C28.7907 78.2426 29.8135 86.7258 31.8591 93.5295C33.9482 100.29 36.8859 105.371 40.6724 108.773C44.4588 112.132 48.8981 113.811 53.9902 113.811Z" fill="#00A2E8" fill-opacity="0.15"/>
<path d="M177.556 135.902C167.807 135.902 159.124 134.244 151.508 130.928C143.935 127.57 137.95 122.962 133.555 117.106C129.202 111.206 126.961 104.402 126.83 96.6945H155.294C155.468 99.9241 156.535 102.766 158.493 105.221C160.495 107.632 163.15 109.505 166.458 110.84C169.765 112.175 173.487 112.843 177.621 112.843C181.93 112.843 185.738 112.089 189.046 110.582C192.353 109.075 194.943 106.986 196.815 104.316C198.686 101.647 199.622 98.5676 199.622 95.0797C199.622 91.5486 198.621 88.4267 196.619 85.7138C194.66 82.9579 191.831 80.8048 188.132 79.2546C184.476 77.7044 180.124 76.9293 175.075 76.9293H162.606V56.389H175.075C179.34 56.389 183.105 55.6569 186.369 54.1928C189.677 52.7287 192.245 50.7049 194.073 48.1212C195.901 45.4944 196.815 42.4371 196.815 38.9491C196.815 35.6334 196.009 32.7267 194.399 30.2291C192.832 27.6885 190.613 25.7077 187.74 24.2867C184.911 22.8656 181.603 22.1551 177.817 22.1551C173.987 22.1551 170.483 22.8441 167.306 24.2221C164.129 25.557 161.583 27.4732 159.668 29.9708C157.753 32.4683 156.73 35.3965 156.6 38.7553H129.507C129.638 31.1334 131.836 24.4158 136.101 18.6026C140.366 12.7893 146.111 8.24627 153.336 4.9736C160.604 1.65787 168.808 0 177.948 0C187.174 0 195.248 1.65787 202.168 4.9736C209.088 8.28933 214.463 12.7677 218.293 18.4088C222.166 24.0068 224.081 30.2937 224.038 37.2697C224.081 44.6763 221.753 50.8556 217.052 55.8076C212.396 60.7597 206.324 63.9032 198.838 65.2381V66.2716C208.674 67.5203 216.16 70.9007 221.296 76.4125C226.475 81.8813 229.043 88.7281 228.999 96.9528C229.043 104.489 226.845 111.185 222.406 117.041C218.01 122.897 211.939 127.505 204.192 130.864C196.445 134.223 187.566 135.902 177.556 135.902Z" fill="#00A2E8" fill-opacity="0.15"/>
</g>
</svg>
