<svg width="156" height="49" viewBox="0 0 156 49" fill="none" xmlns="http://www.w3.org/2000/svg">
<g id="ansible-ar21 (1) 1">
<path id="Vector" d="M51.8697 24.5001C51.8694 30.6215 49.4333 36.492 45.0973 40.8204C40.7614 45.1487 34.8807 47.5804 28.7489 47.5804C15.9807 47.5804 5.63062 37.2478 5.63062 24.5014C5.63062 11.7549 15.982 1.42236 28.7489 1.42236C41.5157 1.42236 51.8671 11.7562 51.8671 24.5039" fill="#1A1918"/>
<path id="Vector_2" d="M29.1389 15.5201L35.1219 30.2614L26.0854 23.1564L29.1389 15.5201ZM39.7667 33.6565L30.5636 11.5472C30.3014 10.9102 29.7886 10.5724 29.1376 10.5724C28.4866 10.5724 27.9364 10.9102 27.6729 11.5472L17.572 35.7984H21.0272L25.0249 25.7998L36.9574 35.4231C37.4379 35.81 37.784 35.9853 38.2335 35.9853C39.1351 35.9853 39.923 35.3109 39.923 34.3374C39.923 34.1788 39.8675 33.9273 39.7667 33.6565Z" fill="white"/>
<path id="Vector_3" d="M83.5566 31.4038C83.3177 31.4038 83.0606 31.3432 82.8811 31.1021L75.2176 21.0416V31.3032H73.47V18.6664C73.47 18.1506 73.8872 17.7612 74.3638 17.7612C74.6415 17.7612 74.8805 17.8424 75.0588 18.0835L82.7015 28.1234V17.9017H84.4492V30.5179C84.4504 30.6352 84.4281 30.7514 84.3835 30.8599C84.3389 30.9683 84.273 31.0668 84.1897 31.1494C84.1064 31.232 84.0073 31.297 83.8983 31.3407C83.7894 31.3844 83.674 31.4059 83.5566 31.4038ZM93.6665 31.525C91.9202 31.525 90.0925 31.164 88.3862 30.5192L88.8034 29.0711C90.3715 29.5869 92.079 29.9351 93.6665 29.9351C95.8701 29.9351 97.0223 29.1511 97.0223 28.0447C97.0223 27.0389 96.1284 26.536 93.0517 25.0867C89.9749 23.6373 88.7633 22.714 88.7633 20.9023C88.7633 18.629 90.5097 17.7044 93.806 17.7044C95.1752 17.7044 97.2935 17.9881 98.4922 18.3492L98.2145 19.8372C96.7829 19.496 95.3178 19.3144 93.846 19.2956C91.5236 19.2956 90.5704 19.7379 90.5704 20.8456C90.5704 21.9313 91.2653 22.393 94.5203 23.9042C97.9561 25.4941 98.828 26.2988 98.828 27.9493C98.828 30.3439 96.5637 31.5315 93.6665 31.5315M102.765 17.8798H104.571V31.28H102.765V17.8798ZM116.638 25.0557H112.15V29.6037H116.638C118.166 29.6037 119.099 28.6366 119.099 27.2891C119.099 26.0215 118.127 25.0557 116.638 25.0557ZM115.763 19.2608H112.15V23.547H115.763C117.212 23.547 118.265 22.6212 118.265 21.333C118.265 20.0655 117.352 19.2608 115.763 19.2608ZM116.657 31.1317H111.258C110.741 31.1317 110.344 30.7294 110.344 30.2265V18.6367C110.347 18.3964 110.444 18.1667 110.615 17.9974C110.786 17.828 111.017 17.7325 111.258 17.7315H115.724C118.463 17.7315 120.09 19.079 120.09 21.1925C120.09 22.353 119.415 23.4052 118.383 24.0293C119.912 24.4935 120.944 25.7598 120.944 27.2891C120.944 29.4219 119.18 31.1317 116.657 31.1317ZM126.214 30.9834C125.718 30.9834 125.31 30.5605 125.31 30.0782V17.5703H127.118V29.3406H134.329V30.9705L126.214 30.9834ZM142.743 31.0569C139.049 31.0569 136.828 29.6901 136.828 26.9306C136.828 25.6231 137.564 24.3749 138.992 23.792C137.83 23.0674 137.245 22.0409 137.245 20.9139C137.245 18.4188 139.172 17.2312 142.799 17.2312C144.26 17.2373 145.717 17.3924 147.147 17.6941L146.948 19.1835C145.439 18.9423 144.029 18.8018 142.659 18.8018C140.316 18.8018 139.066 19.4465 139.066 20.9939C139.066 22.2215 140.218 23.186 141.748 23.186H144.845C144.946 23.1844 145.047 23.2031 145.141 23.2409C145.235 23.2787 145.321 23.3348 145.393 23.406C145.465 23.4772 145.522 23.5621 145.561 23.6556C145.599 23.7491 145.619 23.8494 145.619 23.9506C145.619 24.3929 145.283 24.7346 144.844 24.7346H141.509C139.761 24.7346 138.65 25.5986 138.65 26.9268C138.65 28.8777 140.456 29.4619 142.719 29.4619C143.95 29.4619 145.617 29.302 146.981 28.9796L147.24 30.447C145.783 30.8392 144.281 31.0425 142.772 31.0518M63.5888 20.5323L66.7533 28.447L61.9742 24.6302L63.5888 20.5323ZM69.2101 30.2704L64.3431 18.3995C64.2036 18.0578 63.9259 17.8759 63.5888 17.8759C63.4213 17.873 63.257 17.9217 63.1183 18.0154C62.9796 18.1091 62.8733 18.2432 62.8138 18.3995L57.4895 31.7752L59.2978 31.4193L61.4123 26.0512L67.7221 31.2181C67.9765 31.4244 68.1587 31.5199 68.3976 31.5199C68.5149 31.5218 68.6314 31.5002 68.7402 31.4564C68.849 31.4126 68.948 31.3475 69.0312 31.265C69.1143 31.1824 69.1801 31.084 69.2246 30.9756C69.2691 30.8673 69.2914 30.7511 69.2902 30.634C69.2819 30.5088 69.254 30.3856 69.2075 30.2691L69.2101 30.2704Z" fill="#1A1918"/>
</g>
</svg>
