<svg width="115" height="57" viewBox="0 0 115 57" fill="none" xmlns="http://www.w3.org/2000/svg">
<g id="ceph-ar21 (1) 1">
<path id="Vector" d="M41.3571 44.8171C39.8875 44.0377 39.0351 43.1599 38.8477 42.2038C38.6676 41.2796 39.0828 40.2525 40.1199 39.0624C42.5971 36.2452 43.9612 32.6248 43.9612 28.8706C43.9556 24.7532 42.3031 20.8059 39.3661 17.8945C36.4291 14.983 32.4472 13.3449 28.2937 13.3393L28.2248 13.3403L28.1541 13.3393C24.0007 13.3451 20.0191 14.9833 17.0822 17.8948C14.1454 20.8062 12.4931 24.7533 12.4875 28.8706C12.4842 32.6167 13.849 36.2373 16.3297 39.0633C17.3741 40.2616 17.781 41.2486 17.6157 42.1628C17.4356 43.1162 16.5897 44.0067 15.0989 44.8143C12.8025 42.925 10.7818 40.4018 9.54357 37.8705C8.86714 36.495 8.348 35.0489 7.99584 33.559C7.63451 32.0217 7.45267 30.4482 7.4539 28.8697C7.44842 26.1241 8.0017 23.4056 9.08063 20.8769C10.125 18.433 11.6176 16.2367 13.5199 14.3528C15.4067 12.4785 17.642 10.9844 20.1022 9.95301C22.6526 8.88303 25.3947 8.33425 28.1642 8.33952H28.3047C31.0745 8.33437 33.8168 8.88315 36.3676 9.95301C38.833 10.9874 41.0485 12.4661 42.9499 14.3528C44.8409 16.2226 46.3482 18.4382 47.3882 20.8769C48.4678 23.4055 49.0217 26.124 49.0168 28.8697C49.0168 30.4522 48.8331 32.0293 48.4657 33.559C48.114 35.0492 47.5946 36.4954 46.917 37.8705C45.6697 40.4018 43.6498 42.9268 41.3599 44.8162M33.7057 48.6587C33.465 48.5085 32.643 47.9029 31.8411 46.8012C31.0723 45.7495 30.1675 44.004 30.2153 41.6675C30.2423 40.2706 30.5295 38.8908 31.0622 37.5973C31.5954 36.3089 32.359 35.1265 33.3162 34.1072L33.3218 34.0981L33.5349 33.8522C33.8995 33.4334 34.277 32.999 34.5774 32.4928C34.9485 31.87 35.2176 31.2144 35.3784 30.5442C35.6256 29.5018 35.6394 28.4183 35.4188 27.37C35.2149 26.4121 34.8034 25.4852 34.2302 24.6839C33.6681 23.9025 32.9565 23.2382 32.1359 22.7289C31.2778 22.2001 30.3181 21.8537 29.3179 21.7119C28.9762 21.6636 28.6315 21.6393 28.2863 21.639H28.1375C27.793 21.6388 27.4489 21.6628 27.1078 21.7109C26.1076 21.8531 25.148 22.1994 24.2898 22.728C23.4688 23.2372 22.7569 23.9015 22.1946 24.683C21.6193 25.4894 21.2153 26.4033 21.0069 27.3691C20.786 28.4174 20.8001 29.501 21.0483 30.5433C21.2081 31.2135 21.4781 31.8681 21.8474 32.4919C22.1505 32.999 22.5271 33.4316 22.8908 33.8513L23.1049 34.0972L23.1095 34.1063C24.0776 35.1397 24.8363 36.3144 25.3645 37.5964C25.8973 38.8895 26.1842 40.2691 26.2104 41.6657C26.2582 44.0021 25.3534 45.7477 24.5846 46.7993C23.7818 47.892 22.9588 48.5066 22.72 48.6569L21.5195 48.299C20.329 47.9038 19.1708 47.3885 18.0685 46.7912C19.9607 45.7895 21.164 43.81 21.164 41.6611C21.164 40.2407 20.6064 38.8748 19.5079 37.6092C19.4913 37.591 19.4748 37.5746 19.4619 37.5618L19.1331 37.2049L18.2513 36.1805C17.2478 34.8461 16.529 33.3231 16.1387 31.7042C15.7196 29.9431 15.6964 28.1121 16.0707 26.3411C16.4152 24.7185 17.1114 23.1542 18.0915 21.7902C19.0302 20.479 20.2537 19.3381 21.6279 18.4885C23.0825 17.5924 24.7089 17.0051 26.4042 16.7639C26.9799 16.6823 27.5606 16.6419 28.1421 16.6428H28.2983C28.88 16.6422 29.4611 16.6827 30.0371 16.7639C31.7324 17.0051 33.3588 17.5924 34.8135 18.4885C36.1998 19.3485 37.402 20.4703 38.3517 21.7902C39.3216 23.1442 40.0179 24.7185 40.3725 26.3411C40.7452 28.1154 40.7217 29.949 40.3036 31.7133C39.9127 33.3323 39.1933 34.8554 38.1891 36.1896C37.9135 36.5538 37.6233 36.8698 37.3073 37.214L36.9886 37.5627C36.9656 37.5837 36.9481 37.5991 36.9334 37.621C35.8193 38.9413 35.2773 40.268 35.2773 41.6702C35.2792 42.7229 35.5683 43.7554 36.1138 44.6586C36.6594 45.5617 37.4412 46.3017 38.3765 46.8003C37.2749 47.406 36.1198 47.9108 34.9255 48.3081L33.7314 48.666M28.2239 33.1201C27.1399 33.1182 26.1009 32.6905 25.3344 31.9307C24.5679 31.1709 24.1365 30.1409 24.1345 29.0664C24.1365 27.9918 24.5679 26.9619 25.3344 26.2021C26.1009 25.4422 27.1399 25.0145 28.2239 25.0126C29.3077 25.0148 30.3464 25.4426 31.1127 26.2024C31.879 26.9622 32.3103 27.992 32.3123 29.0664C32.3103 30.1408 31.879 31.1706 31.1127 31.9304C30.3464 32.6902 29.3077 33.118 28.2239 33.1201Z" fill="#F0424D"/>
<path id="Vector_2" d="M66.8273 31.1215C66.8273 33.9715 66.5702 34.7591 65.8776 35.4466C65.467 35.8536 64.8249 36.1332 63.618 36.1332H59.3927C58.0333 36.1332 57.2121 35.9037 56.6371 35.3455C55.7397 34.455 55.4834 33.386 55.4834 29.2658C55.4834 25.1455 55.7406 24.0756 56.6371 23.186C57.2029 22.6261 58.0149 22.3984 59.3927 22.3984H63.6014C64.858 22.3984 65.422 22.6515 65.8592 23.085C66.5261 23.746 66.7833 24.662 66.7833 27.2298H64.193C64.1406 25.4497 64.0387 25.1355 63.8843 24.9917C63.73 24.8478 63.5169 24.764 62.9355 24.764H59.728C58.9325 24.764 58.7176 24.8405 58.5486 25.019C58.2914 25.2739 58.1628 25.7474 58.1628 29.2667C58.1628 32.786 58.2914 33.2604 58.5486 33.5144C58.7277 33.6929 58.9343 33.7694 59.728 33.7694H62.9612C63.5261 33.7694 63.7842 33.7184 63.9716 33.5417C64.159 33.3651 64.2545 32.8543 64.2545 31.1251H66.8466M71.3429 28.0183H77.6551C77.6551 25.7037 77.5007 25.1956 77.2711 24.9662C77.115 24.8141 76.8853 24.7112 76.0908 24.7112H72.9081C72.1126 24.7112 71.8977 24.7877 71.702 24.9908C71.4706 25.2202 71.3695 25.6773 71.3346 28.0174L71.3429 28.0183ZM71.3429 30.1308C71.3704 32.826 71.522 33.3605 71.7287 33.5636C71.9353 33.7666 72.1144 33.8185 72.9081 33.8185H76.4904C77.081 33.8185 77.2619 33.7166 77.4153 33.5636C77.5935 33.3851 77.645 33.081 77.6973 31.859H80.2876C80.2362 33.9952 80.0304 34.7591 79.3378 35.4466C78.9024 35.8791 78.3118 36.1332 77.0801 36.1332H72.5792C71.2198 36.1332 70.3977 35.9037 69.8236 35.3455C68.9234 34.455 68.6699 33.386 68.6699 29.2658C68.6699 25.1455 68.9253 24.0756 69.8236 23.186C70.3885 22.6261 71.2014 22.3984 72.5792 22.3984H76.3765C77.7377 22.3984 78.6085 22.6515 79.1321 23.1605C80.0295 24.0511 80.2858 25.1201 80.2858 29.1392V29.8258C80.2858 30.0279 80.2095 30.1308 79.9771 30.1308H71.3245M90.7451 33.4634C90.5155 33.6911 90.1793 33.794 89.3343 33.794H87.3319C86.5107 33.794 85.7979 33.5645 84.8169 33.0701L84.6378 32.9808V25.4988C85.6647 24.9908 86.383 24.7358 87.2299 24.7358H89.3425C90.1876 24.7358 90.5229 24.8378 90.7534 25.0663C91.1392 25.4488 91.2402 26.1845 91.2402 29.2549C91.2402 32.3252 91.1374 33.0792 90.7534 33.4434L90.7451 33.4634ZM89.9736 22.3711H88.1016C86.9461 22.3711 86.3821 22.6261 84.6369 24.0511V22.3984H81.9704V39.1708H84.6387V34.5133C86.3839 35.9119 86.9479 36.1659 88.1034 36.1659H89.9754C91.4653 36.1659 92.2093 35.911 92.799 35.3282C93.5338 34.5998 93.9012 33.5472 93.9012 29.2731C93.9012 24.9989 93.5412 23.9555 92.799 23.2179C92.2093 22.6333 91.4653 22.3775 89.9754 22.3775M106.734 23.1678C106.22 22.6579 105.554 22.3784 104.348 22.3784H102.167C101.013 22.3784 100.448 22.6333 98.7024 24.0583V18.8227C97.8731 18.367 96.9805 18.0354 96.0534 17.8384C96.0469 17.8384 96.0414 17.8429 96.035 17.8448V36.1341H98.7034V25.4988L99.2572 25.2393C100.006 24.9061 100.609 24.7367 101.296 24.7367H103.093C103.991 24.7367 104.248 24.8387 104.53 25.1191C104.787 25.3741 104.897 25.7793 104.897 26.4413V36.1341H107.567V26.2637C107.567 24.3552 107.284 23.6941 106.745 23.1605" fill="#333C46"/>
</g>
</svg>
