<svg width="176" height="45" viewBox="0 0 176 45" fill="none" xmlns="http://www.w3.org/2000/svg">
<g id="datadog-wordmark-1 1" clip-path="url(#clip0_99_70)">
<path id="Vector" d="M57.356 31.9579H49.1333V12.9027H57.356C63.279 12.9027 66.2449 15.9059 66.2449 21.9102C66.2427 28.6072 63.279 31.9579 57.356 31.9579ZM52.6466 28.8905H56.824C60.7594 28.8905 62.725 26.5645 62.725 21.908C62.725 17.9442 60.7572 15.9612 56.824 15.9612H52.6466V28.8905ZM69.9254 31.9579H66.3153L74.3687 12.9027H78.1481L86.373 31.9579H82.5937L80.206 26.7614H74.1313L75.3383 23.6962H79.2782L76.1738 16.5389L69.9254 31.9579ZM84.3877 12.9027H98.7797V15.9657H93.3426V31.9579H89.8292V15.9657H84.3877V12.9027ZM100.587 31.9579H96.9769L105.03 12.9027H108.81L117.035 31.9579H113.251L110.863 26.7614H104.788L105.995 23.6962H109.935L106.833 16.5389L100.587 31.9579ZM127.59 31.9579H119.367V12.9027H127.59C133.517 12.9027 136.479 15.9059 136.479 21.9102C136.479 28.6072 133.517 31.9579 127.59 31.9579ZM122.883 28.8905H127.06C130.993 28.8905 132.966 26.5645 132.966 21.908C132.966 17.9442 130.996 15.9612 127.06 15.9612H122.883V28.8905ZM138.86 22.4568C138.86 15.9944 142.037 12.7655 148.387 12.7655C154.639 12.7655 157.761 15.9944 157.761 22.4568C157.761 28.8816 154.637 32.0951 148.387 32.0951C142.318 32.0951 139.144 28.8816 138.86 22.4568ZM148.387 29.0233C152.203 29.0233 154.114 26.8079 154.114 22.3727C154.114 18.0084 152.203 15.824 148.387 15.824C144.469 15.824 142.51 18.0084 142.51 22.3727C142.51 26.8079 144.469 29.0233 148.387 29.0233ZM172.428 24.2473V28.709C171.617 28.9215 170.891 29.0277 170.252 29.0277C165.953 29.0277 163.807 26.7393 163.807 22.1647C163.807 17.9398 166.085 15.8307 170.639 15.8307C172.54 15.8307 174.308 16.187 175.944 16.8974V13.6972C174.308 13.0775 172.45 12.7655 170.372 12.7655C163.563 12.7655 160.158 15.8971 160.158 22.1647C160.158 28.782 163.504 32.0951 170.199 32.0951C172.501 32.0951 174.414 31.7587 175.944 31.0815V21.1112H170.267L169.08 24.2451L172.428 24.2473ZM34.9304 31.8495L31.2213 29.3884L28.1279 34.5893L24.531 33.5314L21.3628 38.3982L21.5255 39.9297L38.7471 36.7361L37.7468 25.9049L34.9304 31.8495ZM18.8696 27.1819L21.6333 26.799C22.0796 27.0004 22.3918 27.0779 22.9282 27.2151C23.7637 27.4342 24.7289 27.6445 26.1602 26.9186C26.4922 26.7526 27.1869 26.113 27.4661 25.75L38.7867 23.6829L39.941 37.7519L20.5472 41.2708L18.8696 27.1819ZM39.897 22.1116L38.7801 22.3263L36.6343 0L0.0562744 4.26917L4.56339 41.0805L8.84405 40.4542C8.50327 39.9629 7.96901 39.3675 7.06099 38.6062C5.799 37.5527 6.24531 35.7601 6.99064 34.6292C7.97341 32.7192 13.0456 30.2892 12.7575 27.235C12.6542 26.124 12.4783 24.6788 11.4538 23.6874C11.4164 24.099 11.4846 24.4952 11.4846 24.4952C11.4846 24.4952 11.0646 23.9551 10.8536 23.2182C10.6447 22.9349 10.482 22.8464 10.2599 22.4679C10.1016 22.9039 10.1236 23.4107 10.1236 23.4107C10.1236 23.4107 9.78065 22.5918 9.72349 21.9013C9.51902 22.2112 9.46845 22.7977 9.46845 22.7977C9.46845 22.7977 9.02214 21.5074 9.12327 20.8125C8.9188 20.2083 8.31419 19.0088 8.48568 16.2822C9.60257 17.07 12.0606 16.8819 13.017 15.4611C13.3358 14.9897 13.5534 13.706 12.8587 11.1764C12.4124 9.55417 11.3087 7.13741 10.8778 6.21895L10.8272 6.25658C11.0536 6.99577 11.5219 8.54276 11.7022 9.29523C12.2453 11.5726 12.3904 12.3649 12.1353 13.4139C11.9177 14.3257 11.3988 14.9233 10.0797 15.5916C8.7605 16.2622 7.01042 14.6311 6.8983 14.5426C5.61652 13.5157 4.62495 11.8381 4.51502 11.0237C4.40069 10.1318 5.02509 9.59622 5.34169 8.8681C4.89098 8.99867 4.3875 9.22884 4.3875 9.22884C4.3875 9.22884 4.98772 8.60252 5.72864 8.06251C6.03645 7.8589 6.21453 7.72832 6.53773 7.45832C6.06943 7.45168 5.68907 7.46275 5.68907 7.46275C5.68907 7.46275 6.46957 7.03782 7.27865 6.73019C6.68723 6.70363 6.11999 6.72577 6.11999 6.72577C6.11999 6.72577 7.86128 5.94231 9.2354 5.36689C10.1808 4.97738 11.1042 5.09246 11.6231 5.84715C12.3046 6.83642 13.0192 7.37422 14.5362 7.70841C15.4684 7.29233 15.7498 7.07987 16.9195 6.75896C17.9484 5.61919 18.7575 5.47091 18.7575 5.47091C18.7575 5.47091 18.3574 5.84051 18.2496 6.42256C18.8345 5.96002 19.4742 5.57271 19.4742 5.57271C19.4742 5.57271 19.2258 5.88034 18.995 6.36945L19.0477 6.44912C19.7293 6.03748 20.5296 5.71436 20.5296 5.71436C20.5296 5.71436 20.3009 6.00649 20.0327 6.38273C20.5472 6.3783 21.5893 6.40486 21.9916 6.45133C24.3793 6.50445 24.874 3.88408 25.7908 3.55653C26.9385 3.14489 27.4507 2.8948 29.4053 4.82688C31.0828 6.48675 32.3932 9.45458 31.7424 10.1207C31.1971 10.6718 30.1198 9.90606 28.9282 8.40776C28.2972 7.61545 27.8223 6.67929 27.5981 5.48861C27.409 4.48384 26.6768 3.90179 26.6768 3.90179C26.6768 3.90179 27.1012 4.85565 27.1012 5.69665C27.1012 6.15699 27.1583 7.87439 27.8905 8.83711C27.8179 8.97875 27.7849 9.53426 27.7036 9.64049C26.8527 8.60473 25.0235 7.86333 24.7267 7.64422C25.7358 8.47637 28.0554 10.3885 28.9458 12.221C29.7878 13.9539 29.291 15.543 29.7175 15.9546C29.8384 16.0719 31.5291 18.1921 31.8545 19.2588C32.4218 21.1157 31.8875 23.0677 31.1466 24.2783L29.0733 24.6036C28.7699 24.5195 28.5654 24.4752 28.2928 24.3181C28.4423 24.0503 28.7413 23.3842 28.7435 23.2469L28.627 23.0411C27.9806 23.9618 26.9011 24.8559 26.0019 25.3693C24.8256 26.0399 23.4713 25.9359 22.5897 25.6615C20.0855 24.8847 17.7176 23.1805 17.1481 22.7335C17.1481 22.7335 17.1305 23.0898 17.2383 23.1717C17.8693 23.8888 19.316 25.1857 20.7143 26.0886L17.7352 26.4184L19.1445 37.4598C18.5201 37.5505 18.4233 37.5948 17.7396 37.6922C17.1371 35.5498 15.9851 34.1489 14.7253 33.3345C13.615 32.6152 12.0826 32.4536 10.6139 32.7458L10.5194 32.8564C11.5395 32.7502 12.7444 32.8985 13.98 33.6864C15.1936 34.4588 16.172 36.455 16.5325 37.6568C16.9942 39.1927 17.313 40.8349 16.0708 42.5766C15.187 43.8138 12.6102 44.4976 10.526 43.0192C11.0822 43.92 11.8341 44.657 12.8455 44.7942C14.3493 45 15.7762 44.7366 16.7568 43.723C17.5945 42.8555 18.0408 41.0407 17.922 39.1307L19.2478 38.9382L19.7271 42.3663L41.6866 39.7039L39.897 22.1116ZM26.5361 12.7987C26.4746 12.9403 26.3778 13.031 26.5229 13.4892L26.5317 13.5157L26.5537 13.5755L26.6131 13.7127C26.8747 14.2483 27.1605 14.7551 27.6376 15.014C27.7607 14.9941 27.8905 14.9786 28.0224 14.972C28.4709 14.952 28.7545 15.0229 28.9348 15.1225C28.9502 15.0317 28.9546 14.9011 28.9436 14.7064C28.9084 14.027 29.0777 12.8717 27.7805 12.2631C27.2902 12.0351 26.6043 12.1037 26.3756 12.3914C26.4174 12.3959 26.4548 12.4047 26.4834 12.4158C26.8329 12.5353 26.5999 12.6548 26.5361 12.7987ZM30.1726 19.1393C30.0033 19.0442 29.2074 19.0818 28.649 19.1482C27.5849 19.2743 26.435 19.6461 26.1822 19.8431C25.7248 20.1994 25.9315 20.8213 26.2701 21.0758C27.2199 21.7885 28.051 22.2687 28.9282 22.1514C29.4669 22.0806 29.9418 21.2219 30.2781 20.4407C30.5112 19.9051 30.5112 19.3274 30.1726 19.1393ZM20.7472 13.6397C21.0484 13.3519 19.2522 12.9757 17.8583 13.9318C16.8315 14.6378 16.7986 16.1516 17.7813 17.0081C17.8803 17.0922 17.9616 17.1541 18.0364 17.2028C18.3244 17.0656 18.652 16.9284 19.0279 16.8067C19.6655 16.5986 20.1932 16.4902 20.6285 16.4349C20.8374 16.2003 21.0792 15.7886 21.0177 15.0428C20.9363 14.027 20.1734 14.1885 20.7472 13.6397Z" fill="#632CA6"/>
</g>
<defs>
<clipPath id="clip0_99_70">
<rect width="176" height="45" fill="white"/>
</clipPath>
</defs>
</svg>
