<svg width="173" height="45" viewBox="0 0 173 45" fill="none" xmlns="http://www.w3.org/2000/svg">
<g id="kubernetes-ar21 1">
<g id="Group">
<path id="Vector" d="M29.1143 0.911272C28.7085 0.934848 28.3117 1.03811 27.9474 1.21495L12.1616 8.60644C11.7544 8.79665 11.3962 9.07458 11.1138 9.41951C10.8313 9.76444 10.6319 10.1675 10.5304 10.5986L6.66438 27.1915C6.57318 27.5763 6.56264 27.9752 6.63341 28.3641C6.70417 28.7531 6.85477 29.1238 7.07605 29.4539C7.1297 29.5348 7.18645 29.6128 7.24629 29.6877L18.1664 43.0009C18.4507 43.3435 18.8095 43.6194 19.2165 43.8085C19.6235 43.9977 20.0684 44.0952 20.5187 44.0941H38.0255C38.4776 44.095 38.9242 43.9965 39.3324 43.8057C39.7406 43.615 40.0999 43.3368 40.3841 42.9918L51.2949 29.6725C51.5773 29.3287 51.7764 28.9265 51.8772 28.4962C51.978 28.0658 51.9778 27.6187 51.8768 27.1884L47.9829 10.5773C47.8814 10.1462 47.6819 9.74319 47.3995 9.39825C47.1171 9.05332 46.7589 8.77539 46.3517 8.58518L30.5783 1.21495C30.1238 0.995481 29.6205 0.891085 29.1143 0.911272Z" fill="#326CE5"/>
<path id="Vector_2" d="M29.2722 6.55969C29.0108 6.57765 28.7671 6.69559 28.5934 6.88813C28.4197 7.08066 28.33 7.3324 28.3437 7.58916V7.85032C28.3697 8.14608 28.4131 8.44012 28.4737 8.73098C28.5603 9.28747 28.5914 9.85093 28.5665 10.4134C28.5122 10.599 28.4048 10.7655 28.257 10.8932L28.2353 11.2879C27.6614 11.3347 27.0915 11.4209 26.5298 11.5461C24.1673 12.0684 22.0179 13.2719 20.3579 15.0019L20.0174 14.765C19.8306 14.8193 19.6295 14.7997 19.4572 14.7104C18.9969 14.3763 18.5708 13.9989 18.185 13.5837C17.9915 13.3567 17.7848 13.1407 17.566 12.9369L17.3555 12.7729C17.1688 12.6253 16.9389 12.5402 16.6993 12.53C16.5565 12.5228 16.414 12.5488 16.2833 12.6058C16.1526 12.6627 16.0375 12.7491 15.9472 12.858C15.7936 13.0695 15.7318 13.3321 15.7753 13.5883C15.8188 13.8445 15.9641 14.0733 16.1793 14.2245L16.3743 14.3763C16.6263 14.5408 16.8878 14.6909 17.1574 14.8258C17.6597 15.0996 18.1335 15.421 18.5719 15.7854C18.6845 15.9428 18.7499 16.1279 18.7608 16.3199L19.0703 16.5841C17.4007 19.0418 16.7151 22.0179 17.145 24.9413L16.7488 25.0536C16.6457 25.2151 16.5072 25.352 16.3434 25.4545C15.7894 25.5994 15.2223 25.6909 14.6503 25.7278C14.3468 25.7339 14.044 25.7573 13.7434 25.7976L13.4957 25.8584H13.4648C13.2901 25.8812 13.1254 25.9513 12.9892 26.0609C12.8529 26.1705 12.7506 26.3152 12.6935 26.4788C12.6365 26.6423 12.6271 26.8182 12.6664 26.9867C12.7057 27.1553 12.7922 27.3097 12.916 27.4326C13.0399 27.5556 13.1962 27.6423 13.3676 27.6828C13.5389 27.7234 13.7183 27.7162 13.8857 27.6622H13.9043L14.1612 27.6318C14.4496 27.5466 14.7328 27.4452 15.0093 27.3282C15.5412 27.1181 16.0927 26.9595 16.656 26.8544C16.8509 26.8662 17.0386 26.9314 17.1977 27.0427L17.6093 26.9729C18.5306 29.778 20.4675 32.1548 23.0539 33.6537L22.8805 34.0091C22.9604 34.1712 22.9895 34.353 22.9641 34.5314C22.7296 35.0632 22.4435 35.5716 22.1098 36.0498C21.9263 36.287 21.7568 36.5344 21.6022 36.7907L21.4784 37.0397C21.3898 37.1884 21.345 37.3584 21.3491 37.5305C21.3533 37.7027 21.4061 37.8704 21.5017 38.0149C21.5973 38.1593 21.7319 38.2749 21.8906 38.3486C22.0492 38.4223 22.2257 38.4513 22.4002 38.4324C22.5746 38.4135 22.7403 38.3473 22.8787 38.2414C23.0171 38.1354 23.1228 37.9938 23.1839 37.8323L23.3015 37.5955C23.4089 37.3174 23.4998 37.0335 23.5739 36.7452C23.8215 36.1378 23.9608 35.4849 24.3044 35.081C24.4165 34.9777 24.5578 34.91 24.7098 34.8867L24.9265 34.5071C27.7295 35.5646 30.8313 35.5722 33.6396 34.5283L33.8254 34.8836C34.0182 34.9132 34.1915 35.0156 34.3082 35.1691C34.575 35.6665 34.7916 36.1883 34.9551 36.727C35.0302 37.0153 35.1222 37.2992 35.2306 37.5773L35.3482 37.8141C35.4094 37.9756 35.515 38.1172 35.6534 38.2232C35.7918 38.3291 35.9575 38.3953 36.132 38.4142C36.3065 38.4331 36.4829 38.4041 36.6416 38.3304C36.8002 38.2566 36.9349 38.1411 37.0305 37.9966C37.1261 37.8522 37.1789 37.6845 37.183 37.5123C37.1871 37.3401 37.1423 37.1702 37.0537 37.0215L36.9299 36.7725C36.7753 36.5172 36.6058 36.2708 36.4223 36.0346C36.0957 35.5724 35.8158 35.0802 35.5866 34.5648C35.564 34.4706 35.5608 34.3728 35.5773 34.2774C35.5938 34.182 35.6296 34.0907 35.6825 34.0091C35.6219 33.888 35.5692 33.7632 35.5247 33.6355C38.1076 32.1267 40.037 29.7411 40.9475 26.9303L41.3499 27.0002C41.494 26.8709 41.6841 26.8022 41.8792 26.8089C42.4425 26.9139 42.994 27.0726 43.5259 27.2826C43.802 27.4058 44.0852 27.5133 44.374 27.6045C44.4421 27.6227 44.5411 27.6349 44.6216 27.6561H44.6402C44.8076 27.7102 44.987 27.7174 45.1583 27.6768C45.3296 27.6363 45.486 27.5497 45.6099 27.4267C45.7338 27.3038 45.8203 27.1493 45.8596 26.9808C45.8989 26.8122 45.8895 26.6363 45.8325 26.4727C45.7752 26.3087 45.6723 26.1637 45.5355 26.0541C45.3986 25.9444 45.2333 25.8745 45.058 25.8523L44.7795 25.7916C44.4788 25.7512 44.176 25.7279 43.8726 25.7217C43.3005 25.6849 42.7334 25.5933 42.1795 25.4484C42.008 25.3545 41.8665 25.2157 41.7709 25.0475L41.3902 24.9382C41.7982 22.0172 41.0987 19.0508 39.4247 16.6023L39.759 16.2986C39.7455 16.1076 39.8088 15.919 39.9354 15.7733C40.3705 15.4062 40.8412 15.0818 41.3406 14.8045C41.6102 14.6696 41.8717 14.5195 42.1237 14.3551L42.3311 14.1911C42.4833 14.0982 42.6057 13.9649 42.6839 13.8067C42.7622 13.6484 42.7933 13.4717 42.7736 13.2969C42.7538 13.122 42.6841 12.9563 42.5724 12.8187C42.4607 12.6811 42.3116 12.5773 42.1423 12.5194C41.973 12.4614 41.7905 12.4516 41.6158 12.4911C41.441 12.5306 41.2813 12.6177 41.1549 12.7426L40.9444 12.9065C40.7257 13.1104 40.519 13.3263 40.3254 13.5534C39.9512 13.9732 39.5366 14.3566 39.0873 14.6982C38.9059 14.7703 38.7076 14.7914 38.5147 14.759L38.1556 15.011C36.0851 12.8813 33.2969 11.5615 30.3092 11.2971C30.3092 11.1756 30.2906 10.9509 30.2875 10.8841C30.1268 10.7758 30.0157 10.6101 29.978 10.4225C29.9585 9.86056 29.9948 9.29813 30.0863 8.74313C30.1468 8.45227 30.1902 8.15823 30.2163 7.86247V7.59827C30.2299 7.34151 30.1402 7.08978 29.9666 6.89724C29.7929 6.7047 29.5491 6.58676 29.2877 6.5688L29.2722 6.55969ZM28.0899 13.7447L27.8113 18.6035H27.7896C27.7832 18.7511 27.736 18.8942 27.6533 19.0176C27.5705 19.141 27.4552 19.2401 27.3195 19.3043C27.1839 19.3684 27.0331 19.3953 26.8832 19.3821C26.7332 19.3689 26.5897 19.316 26.4679 19.2291L22.407 16.4049C23.6999 15.159 25.3219 14.2923 27.0901 13.9026C27.4214 13.8332 27.7561 13.7805 28.093 13.7447H28.0899ZM30.4546 13.7447C32.5875 14.0043 34.5744 14.9443 36.1097 16.4201L32.0858 19.2261C31.9642 19.3215 31.8177 19.3816 31.663 19.3994C31.5083 19.4173 31.3516 19.3922 31.2107 19.3271C31.0698 19.2619 30.9504 19.1593 30.866 19.0308C30.7816 18.9024 30.7356 18.7533 30.7332 18.6005L30.4546 13.7447ZM20.9274 18.2361L24.6417 21.4854V21.5067C24.7551 21.6039 24.8394 21.7294 24.8859 21.8698C24.9323 22.0103 24.939 22.1605 24.9054 22.3044C24.8717 22.4484 24.7989 22.5807 24.6947 22.6872C24.5905 22.7938 24.4588 22.8707 24.3136 22.9097V22.9248L19.547 24.2701C19.3106 22.1632 19.7963 20.039 20.9274 18.233V18.2361ZM37.5892 18.2361C38.7175 20.0373 39.2163 22.1504 39.0099 24.2549L34.237 22.9066V22.8884C34.0919 22.8494 33.9602 22.7725 33.856 22.666C33.7518 22.5594 33.679 22.4271 33.6453 22.2832C33.6117 22.1392 33.6184 21.989 33.6648 21.8486C33.7112 21.7081 33.7956 21.5826 33.9089 21.4854L37.5923 18.2482L37.5892 18.2361ZM28.5108 21.7435H30.0275L30.9561 22.8975L30.6156 24.343L29.2537 24.9868L27.8856 24.343L27.5637 22.8945L28.5108 21.7435ZM33.3796 25.6913C33.4434 25.6841 33.5078 25.6841 33.5716 25.6913L38.4868 26.5052C37.7632 28.5093 36.3788 30.2192 34.5527 31.364L32.6523 26.8453C32.5999 26.7243 32.578 26.5928 32.5884 26.4617C32.5987 26.3307 32.6411 26.204 32.7118 26.0924C32.7825 25.9807 32.8795 25.8874 32.9946 25.8203C33.1098 25.7531 33.2397 25.7141 33.3735 25.7065L33.3796 25.6913ZM25.1246 25.7126C25.2613 25.7147 25.3953 25.7498 25.5149 25.8148C25.6345 25.8797 25.7359 25.9726 25.8103 26.0852C25.8846 26.1977 25.9296 26.3265 25.9412 26.4601C25.9528 26.5938 25.9306 26.7281 25.8767 26.8514V26.8696L23.9855 31.3397C22.1816 30.2021 20.809 28.514 20.0793 26.5356L24.9513 25.7217C25.0058 25.7165 25.0608 25.7165 25.1153 25.7217L25.1246 25.7126ZM29.2413 27.6743C29.3961 27.6698 29.5492 27.7074 29.6836 27.7829C29.818 27.8585 29.9285 27.9691 30.0027 28.1025H30.0213L32.4232 32.354C32.1081 32.4577 31.7878 32.5459 31.4637 32.6182C29.6969 33.015 27.8524 32.9214 26.1368 32.3479L28.5325 28.0965C28.6043 27.9737 28.7074 27.8714 28.8317 27.7996C28.9559 27.7277 29.0971 27.6887 29.2413 27.6865V27.6743Z" fill="white" stroke="white" stroke-width="0.053987"/>
<path id="Vector_3" d="M61.8467 23.3651L62.7598 22.3873C63.0735 22.0472 63.3778 21.7111 63.6729 21.3791L64.5086 20.4316C64.7686 20.132 64.9925 19.8708 65.1803 19.6481H68.7336C68.0238 20.4478 67.3325 21.21 66.6598 21.9348C65.9851 22.6596 65.2463 23.4087 64.4436 24.182C64.884 24.5794 65.2976 25.0044 65.6817 25.4544C66.1089 25.9464 66.5216 26.4525 66.9198 26.9728C67.3181 27.4931 67.6854 28.0195 68.0217 28.5519C68.356 29.0783 68.6367 29.5581 68.8636 29.9914H65.4279C65.2216 29.6472 64.9781 29.2686 64.6974 28.8556C64.4168 28.4406 64.1279 28.0337 63.8308 27.6348C63.5212 27.2299 63.1973 26.8321 62.8589 26.4414C62.5505 26.0914 62.2119 25.7683 61.8467 25.4757V30.0126H58.8567V15.2023L61.8467 14.7286V23.3682V23.3651ZM79.273 29.6452C78.6267 29.8186 77.9704 29.9534 77.3075 30.0491C76.4719 30.1766 75.6274 30.2395 74.7818 30.2373C74.0196 30.2595 73.2601 30.1389 72.5439 29.882C71.9927 29.6768 71.5053 29.3346 71.1294 28.889C70.7712 28.4425 70.5176 27.9241 70.3865 27.3706C70.234 26.7317 70.1602 26.0772 70.1667 25.421V19.6512H73.1568V25.0566C73.1568 26.0021 73.2837 26.6843 73.5375 27.1034C73.7913 27.5225 74.2659 27.732 74.9613 27.732C75.1676 27.732 75.3946 27.7219 75.6423 27.7016C75.8899 27.6814 76.1034 27.6581 76.283 27.6318V19.6451H79.273V29.6452ZM91.8954 24.8228C91.906 25.5864 91.7803 26.3459 91.524 27.067C91.295 27.7067 90.9287 28.2907 90.45 28.7797C89.964 29.2639 89.3754 29.6371 88.7259 29.8729C87.9804 30.1392 87.1915 30.2689 86.3983 30.2556C86.0372 30.2556 85.6595 30.2394 85.2654 30.207C84.8733 30.1746 84.4854 30.1321 84.1016 30.0794C83.7198 30.0268 83.3556 29.964 83.009 29.8911C82.6623 29.8183 82.3528 29.7423 82.0804 29.6634V15.1993L85.0704 14.7255V19.888C85.4061 19.7435 85.7555 19.6316 86.1135 19.554C86.4959 19.4729 86.8861 19.4332 87.2773 19.4356C87.96 19.4219 88.6377 19.5524 89.2645 19.8182C89.8278 20.0651 90.3232 20.4398 90.71 20.9114C91.1149 21.4171 91.4147 21.996 91.5921 22.6151C91.8009 23.3328 91.903 24.0764 91.8954 24.8228ZM88.8466 24.7438C88.8466 22.855 88.1378 21.9105 86.7202 21.9105C86.4118 21.9107 86.1049 21.9505 85.8071 22.029C85.5481 22.0926 85.3007 22.195 85.0735 22.3326V27.6561C85.2179 27.6824 85.4037 27.7057 85.6306 27.7259C85.8576 27.7462 86.1052 27.7563 86.3735 27.7563C86.7286 27.7803 87.0842 27.7175 87.4083 27.5733C87.7325 27.4291 88.0151 27.2082 88.2307 26.9303C88.6702 26.2855 88.8852 25.5185 88.8435 24.7438H88.8466ZM93.6969 24.9017C93.6789 24.0782 93.8251 23.2591 94.1271 22.4905C94.3837 21.8481 94.7689 21.2626 95.26 20.7687C95.7205 20.32 96.2706 19.9695 96.8757 19.7392C97.4722 19.5049 98.1088 19.3843 98.7514 19.3839C100.25 19.3839 101.433 19.8334 102.302 20.7323C103.168 21.6311 103.602 22.9531 103.602 24.6983C103.602 24.8683 103.595 25.0556 103.583 25.2601C103.571 25.4625 103.557 25.6427 103.543 25.8006H96.7643C96.7908 26.0879 96.882 26.3657 97.0313 26.6141C97.1807 26.8626 97.3844 27.0753 97.6278 27.237C98.2367 27.6191 98.952 27.8049 99.6738 27.7684C100.216 27.7687 100.757 27.7189 101.29 27.6196C101.733 27.5455 102.167 27.4233 102.583 27.2552L102.986 29.6361C102.779 29.7322 102.565 29.8115 102.345 29.8729C102.052 29.9576 101.754 30.0265 101.454 30.0794C101.123 30.1402 100.773 30.1908 100.401 30.2313C100.028 30.2701 99.6529 30.2894 99.2776 30.289C98.433 30.3069 97.5926 30.1667 96.8014 29.876C96.142 29.6283 95.5461 29.2417 95.0557 28.7433C94.5904 28.2569 94.2415 27.6749 94.0343 27.0396C93.8045 26.3506 93.6895 25.6297 93.6938 24.9048L93.6969 24.9017ZM100.717 23.7781C100.704 23.5309 100.66 23.2861 100.587 23.0493C100.517 22.8198 100.401 22.6062 100.246 22.4207C100.086 22.2322 99.8881 22.0782 99.6645 21.9682C99.392 21.8424 99.0927 21.782 98.7917 21.7921C98.4948 21.7844 98.1998 21.8415 97.9281 21.9591C97.6981 22.0634 97.4935 22.2146 97.3276 22.4025C97.1641 22.5914 97.0381 22.8088 96.9562 23.0432C96.8695 23.283 96.8053 23.53 96.7643 23.7812H100.717V23.7781ZM112.268 22.2446C112 22.1798 111.691 22.1109 111.34 22.0381C110.957 21.9635 110.567 21.9269 110.176 21.9287C109.951 21.9313 109.727 21.9475 109.504 21.9773C109.305 21.999 109.107 22.0356 108.913 22.0867V29.9823H105.923V20.1947C106.54 19.9893 107.169 19.817 107.805 19.6785C108.605 19.5072 109.422 19.4247 110.241 19.4325C110.402 19.4325 110.596 19.4426 110.823 19.4629C111.05 19.4831 111.277 19.5094 111.504 19.5418C111.731 19.5742 111.958 19.6147 112.185 19.6633C112.384 19.701 112.579 19.7569 112.767 19.8303L112.268 22.2446ZM114.373 20.0034C115.019 19.8303 115.676 19.6954 116.339 19.5995C117.175 19.4719 118.021 19.409 118.867 19.4113C119.631 19.3892 120.392 19.5066 121.112 19.7575C121.662 19.956 122.149 20.292 122.526 20.7323C122.883 21.1704 123.137 21.6806 123.269 22.2263C123.422 22.8579 123.496 23.5055 123.489 24.1547V30.0035H120.496V24.507C120.496 23.5615 120.369 22.8934 120.115 22.5027C119.861 22.1099 119.386 21.9136 118.691 21.9136C118.485 21.9136 118.258 21.9237 118.01 21.9439C117.762 21.9642 117.549 21.9875 117.369 22.0138V30.0005H114.379V20.0034H114.373ZM125.686 24.9017C125.668 24.0782 125.815 23.2591 126.117 22.4905C126.373 21.8481 126.758 21.2626 127.249 20.7687C127.706 20.3215 128.252 19.9711 128.853 19.7392C129.449 19.505 130.086 19.3844 130.729 19.3839C132.227 19.3839 133.41 19.8334 134.279 20.7323C135.145 21.6311 135.579 22.9531 135.579 24.6983C135.579 24.8683 135.572 25.0556 135.557 25.2601C135.543 25.4625 135.529 25.6427 135.517 25.8006H128.738C128.765 26.0879 128.856 26.3657 129.005 26.6141C129.155 26.8626 129.358 27.0753 129.602 27.237C130.211 27.6191 130.926 27.8049 131.648 27.7684C132.19 27.7687 132.731 27.7189 133.264 27.6196C133.707 27.5455 134.141 27.4233 134.557 27.2552L134.96 29.6361C134.753 29.7322 134.539 29.8115 134.319 29.8729C134.026 29.9576 133.728 30.0265 133.428 30.0794C133.097 30.1402 132.747 30.1908 132.375 30.2313C132.002 30.2701 131.627 30.2894 131.252 30.289C130.407 30.3069 129.567 30.1667 128.775 29.876C128.116 29.6283 127.52 29.2417 127.03 28.7433C126.565 28.2537 126.219 27.6685 126.014 27.0305C125.789 26.3439 125.677 25.6262 125.683 24.9048L125.686 24.9017ZM132.706 23.7781C132.693 23.5309 132.65 23.2861 132.576 23.0493C132.506 22.8198 132.39 22.6062 132.236 22.4207C132.076 22.2322 131.878 22.0782 131.654 21.9682C131.381 21.8424 131.082 21.782 130.781 21.7921C130.484 21.7843 130.189 21.8414 129.918 21.9591C129.688 22.0634 129.483 22.2146 129.317 22.4025C129.153 22.5914 129.027 22.8087 128.946 23.0432C128.859 23.283 128.795 23.53 128.754 23.7812H132.706V23.7781ZM137.798 17.0669L140.788 16.5931V19.6299H144.379V22.0593H140.788V25.7034C140.763 26.2155 140.878 26.7248 141.119 27.1793C141.34 27.5437 141.784 27.7259 142.45 27.7259C142.783 27.7251 143.116 27.6956 143.444 27.6379C143.761 27.5847 144.071 27.5024 144.372 27.3919L144.793 29.6755C144.402 29.8293 144 29.9541 143.589 30.0491C143.056 30.1635 142.51 30.2165 141.964 30.207C141.274 30.2278 140.587 30.1175 139.94 29.882C139.44 29.6898 138.998 29.3763 138.655 28.971C138.323 28.5601 138.093 28.0786 137.984 27.565C137.851 26.9664 137.787 26.3554 137.792 25.7429V17.0669H137.798ZM145.97 24.9017C145.952 24.0782 146.098 23.2591 146.4 22.4905C146.656 21.8481 147.042 21.2626 147.533 20.7687C147.993 20.3201 148.543 19.9696 149.148 19.7392C149.745 19.505 150.382 19.3844 151.024 19.3839C152.522 19.3839 153.706 19.8334 154.574 20.7323C155.441 21.6311 155.874 22.9501 155.874 24.6892C155.874 24.8592 155.867 25.0465 155.853 25.251C155.838 25.4534 155.825 25.6336 155.812 25.7915H149.034C149.061 26.079 149.152 26.357 149.302 26.6055C149.452 26.8539 149.657 27.0665 149.901 27.2279C150.509 27.61 151.225 27.7958 151.946 27.7593C152.489 27.7596 153.03 27.7098 153.562 27.6105C154.006 27.5364 154.44 27.4142 154.856 27.2461L155.258 29.627C155.052 29.7231 154.838 29.8023 154.618 29.8638C154.325 29.9485 154.027 30.0174 153.726 30.0703C153.396 30.1311 153.045 30.1817 152.674 30.2222C152.301 30.261 151.926 30.2802 151.55 30.2799C150.706 30.2978 149.865 30.1576 149.074 29.8669C148.415 29.6192 147.819 29.2325 147.328 28.7341C146.859 28.249 146.505 27.6669 146.295 27.0305C146.07 26.3437 145.959 25.626 145.966 24.9048L145.97 24.9017ZM152.996 23.7781C152.983 23.5309 152.939 23.2861 152.866 23.0493C152.795 22.8198 152.68 22.6062 152.525 22.4207C152.365 22.2322 152.167 22.0782 151.943 21.9682C151.671 21.8424 151.372 21.782 151.071 21.7921C150.774 21.7843 150.479 21.8414 150.207 21.9591C149.972 22.0607 149.762 22.2109 149.591 22.3994C149.427 22.5883 149.301 22.8057 149.22 23.0402C149.133 23.2799 149.069 23.5269 149.028 23.7781H152.996ZM161.207 27.893C161.602 27.9166 161.998 27.8629 162.371 27.735C162.484 27.68 162.578 27.5923 162.639 27.4837C162.699 27.3751 162.725 27.2509 162.712 27.1277C162.699 26.9973 162.651 26.8725 162.573 26.7659C162.496 26.6593 162.391 26.5746 162.269 26.5203C161.84 26.2795 161.391 26.0763 160.926 25.913C160.492 25.7571 160.066 25.5798 159.651 25.3815C159.293 25.2138 158.965 24.9913 158.679 24.7226C158.41 24.4642 158.199 24.154 158.06 23.8115C157.903 23.4033 157.828 22.9691 157.84 22.5331C157.822 22.0909 157.913 21.6511 158.105 21.2505C158.297 20.85 158.584 20.5004 158.942 20.2312C159.676 19.6643 160.685 19.3809 161.969 19.3809C162.592 19.3781 163.214 19.434 163.826 19.5479C164.304 19.6303 164.774 19.7522 165.231 19.9123L164.711 22.196C164.339 22.075 163.961 21.9737 163.578 21.8923C163.127 21.7964 162.666 21.7506 162.204 21.7556C161.267 21.7556 160.799 22.0117 160.799 22.5239C160.798 22.628 160.818 22.7312 160.858 22.8276C160.913 22.9353 160.996 23.0266 161.099 23.0918C161.255 23.1973 161.42 23.2898 161.591 23.3682C161.798 23.4694 162.062 23.5787 162.384 23.6961C162.942 23.8921 163.485 24.1276 164.009 24.4007C164.386 24.5946 164.728 24.848 165.021 25.1508C165.26 25.4064 165.438 25.7115 165.541 26.0436C165.647 26.4139 165.699 26.7975 165.693 27.1824C165.718 27.6351 165.623 28.0865 165.417 28.4926C165.212 28.8987 164.902 29.2456 164.519 29.4994C163.735 30.0217 162.629 30.2849 161.201 30.289C160.415 30.3048 159.63 30.2252 158.864 30.0521C158.424 29.9511 157.992 29.8191 157.571 29.6573L158.072 27.2765C158.579 27.4729 159.102 27.6273 159.635 27.7381C160.152 27.8432 160.679 27.8951 161.207 27.893Z" fill="#121E2A"/>
</g>
</g>
</svg>
