<svg width="225" height="41" viewBox="0 0 225 41" fill="none" xmlns="http://www.w3.org/2000/svg">
<g id="OpenMetal-Logo-New.ai_ 1" clip-path="url(#clip0_25_27)">
<g id="g8">
<g id="g10">
<g id="Clip path group">
<mask id="mask0_25_27" style="mask-type:luminance" maskUnits="userSpaceOnUse" x="0" y="0" width="225" height="41">
<g id="clipPath16">
<path id="path14" d="M0 0H225V41H0V0Z" fill="white"/>
</g>
</mask>
<g mask="url(#mask0_25_27)">
<g id="g12">
<g id="g18">
<path id="path20" d="M62.6225 24.4945C63.574 23.5378 64.0495 22.2787 64.0495 20.7186C64.0495 19.1581 63.574 17.8998 62.6225 16.9423C61.6709 15.9856 60.4659 15.507 59.0069 15.507C57.548 15.507 56.3478 15.9856 55.4073 16.9423C54.4662 17.8998 53.9961 19.1581 53.9961 20.7186C53.9961 22.2787 54.4662 23.5378 55.4073 24.4945C56.3478 25.452 57.548 25.9303 59.0069 25.9303C60.4659 25.9303 61.6709 25.452 62.6225 24.4945ZM54.3767 28.177C53.0019 27.4491 51.9291 26.4349 51.1575 25.1342C50.3855 23.8342 50 22.3623 50 20.7186C50 19.0753 50.3855 17.6083 51.1575 16.3183C51.9291 15.0286 53.0019 14.0197 54.3767 13.2911C55.7507 12.5631 57.2943 12.1987 59.0069 12.1987C60.7404 12.1987 62.2943 12.5631 63.6691 13.2911C65.0431 14.0197 66.1161 15.0286 66.8881 16.3183C67.6597 17.6083 68.0456 19.0753 68.0456 20.7186C68.0456 22.3623 67.6597 23.8342 66.8881 25.1342C66.1161 26.4349 65.0431 27.4491 63.6691 28.177C62.2943 28.9055 60.7404 29.2694 59.0069 29.2694C57.2943 29.2694 55.7507 28.9055 54.3767 28.177Z" fill="#267AB5"/>
</g>
<g id="g22">
<path id="path24" d="M84.3941 24.4944C85.3348 23.5377 85.8056 22.2786 85.8056 20.7185C85.8056 19.158 85.3348 17.8997 84.3941 16.9422C83.4532 15.9855 82.2535 15.5069 80.7947 15.5069C79.8432 15.5069 78.9868 15.7205 78.2257 16.1466C77.4646 16.573 76.8621 17.1818 76.418 17.9721C75.9739 18.7628 75.752 19.6783 75.752 20.7185C75.752 21.7591 75.9739 22.6741 76.418 23.4645C76.8621 24.2556 77.4646 24.864 78.2257 25.2901C78.9868 25.7169 79.8432 25.9302 80.7947 25.9302C82.2535 25.9302 83.4532 25.4519 84.3941 24.4944ZM85.6629 13.2598C86.963 13.9674 87.9829 14.966 88.7233 16.2557C89.4631 17.546 89.8334 19.0333 89.8334 20.7185C89.8334 22.4037 89.4631 23.8967 88.7233 25.1966C87.9829 26.497 86.963 27.501 85.6629 28.2081C84.3625 28.9157 82.8878 29.2693 81.2385 29.2693C78.9551 29.2693 77.1474 28.5202 75.8154 27.0222V35.105H71.8511V12.386H75.625V14.5705C76.2801 13.7801 77.0889 13.1873 78.0513 12.7918C79.0131 12.3966 80.0756 12.1986 81.2385 12.1986C82.8878 12.1986 84.3625 12.5526 85.6629 13.2598Z" fill="#267AB5"/>
</g>
<g id="g26">
<path id="path28" d="M97.7459 16.4273C96.8683 17.1661 96.3347 18.1491 96.1444 19.3766H105.754C105.584 18.1701 105.067 17.1921 104.2 16.4429C103.333 15.6942 102.254 15.3196 100.965 15.3196C99.6964 15.3196 98.623 15.6892 97.7459 16.4273ZM109.465 21.9666H96.176C96.4083 23.1945 97.0165 24.1667 97.9996 24.8846C98.9829 25.6025 100.204 25.961 101.663 25.961C103.523 25.961 105.056 25.358 106.261 24.1511L108.386 26.5542C107.625 27.449 106.663 28.1254 105.5 28.5827C104.337 29.0404 103.026 29.2693 101.568 29.2693C99.7068 29.2693 98.068 28.9054 96.6518 28.1769C95.2349 27.449 94.1408 26.4348 93.3692 25.1341C92.5972 23.8342 92.2118 22.3622 92.2118 20.7185C92.2118 19.0955 92.5868 17.6342 93.3376 16.3338C94.0879 15.0339 95.1295 14.0197 96.4614 13.2911C97.7934 12.5629 99.2945 12.1986 100.965 12.1986C102.614 12.1986 104.089 12.5576 105.389 13.2754C106.689 13.9933 107.704 15.0027 108.434 16.3026C109.163 17.6029 109.528 19.1062 109.528 20.812C109.528 21.0828 109.507 21.4673 109.465 21.9666Z" fill="#267AB5"/>
</g>
<g id="g30">
<path id="path32" d="M128.081 14.0399C129.37 15.2677 130.015 17.088 130.015 19.5013V29.0508H126.051V20.0007C126.051 18.5448 125.702 17.4469 125.004 16.7084C124.307 15.97 123.313 15.6004 122.023 15.6004C120.564 15.6004 119.412 16.0325 118.566 16.8953C117.72 17.7589 117.298 19.002 117.298 20.6247V29.0508H113.333V12.386H117.107V14.5392C117.763 13.7699 118.587 13.1873 119.581 12.7918C120.575 12.3966 121.695 12.1986 122.943 12.1986C125.078 12.1986 126.791 12.8127 128.081 14.0399Z" fill="#267AB5"/>
</g>
<g id="g34">
<path id="path36" d="M161.508 14.0243C162.755 15.2414 163.379 17.067 163.379 19.5014V29.0508H159.415V20.0007C159.415 18.5448 159.087 17.447 158.432 16.7085C157.776 15.9701 156.835 15.6004 155.609 15.6004C154.277 15.6004 153.209 16.0326 152.406 16.8954C151.602 17.7589 151.201 18.9918 151.201 20.5935V29.0508H147.236V20.0007C147.236 18.5448 146.908 17.447 146.253 16.7085C145.598 15.9701 144.657 15.6004 143.431 15.6004C142.077 15.6004 141.005 16.0272 140.212 16.8797C139.419 17.7334 139.022 18.9708 139.022 20.5935V29.0508H135.058V12.386H138.832V14.5083C139.466 13.7591 140.259 13.1874 141.211 12.7919C142.162 12.3967 143.219 12.1988 144.382 12.1988C145.651 12.1988 146.777 12.4329 147.76 12.9009C148.743 13.369 149.52 14.061 150.091 14.9764C150.788 14.1025 151.687 13.4212 152.787 12.9322C153.886 12.4436 155.102 12.1988 156.434 12.1988C158.569 12.1988 160.26 12.8075 161.508 14.0243Z" fill="#121E2A"/>
</g>
<g id="g38">
<path id="path40" d="M172.75 16.4273C171.873 17.1661 171.339 18.1491 171.149 19.3766H180.758C180.589 18.1701 180.071 17.1921 179.204 16.4429C178.337 15.6942 177.259 15.3196 175.969 15.3196C174.701 15.3196 173.628 15.6892 172.75 16.4273ZM184.469 21.9666H171.181C171.413 23.1945 172.021 24.1667 173.004 24.8846C173.987 25.6025 175.208 25.961 176.667 25.961C178.528 25.961 180.061 25.358 181.266 24.1511L183.391 26.5542C182.63 27.449 181.667 28.1254 180.505 28.5827C179.342 29.0404 178.031 29.2693 176.572 29.2693C174.711 29.2693 173.073 28.9054 171.656 28.1769C170.239 27.449 169.145 26.4348 168.374 25.1341C167.602 23.8342 167.216 22.3622 167.216 20.7185C167.216 19.0955 167.591 17.6342 168.342 16.3338C169.092 15.0339 170.134 14.0197 171.466 13.2911C172.798 12.5629 174.299 12.1986 175.969 12.1986C177.619 12.1986 179.094 12.5576 180.394 13.2754C181.694 13.9933 182.709 15.0027 183.438 16.3026C184.168 17.6029 184.533 19.1062 184.533 20.812C184.533 21.0828 184.511 21.4673 184.469 21.9666Z" fill="#121E2A"/>
</g>
<g id="g42">
<path id="path44" d="M198.519 28.1457C198.053 28.5202 197.488 28.801 196.822 28.9882C196.156 29.1756 195.453 29.2694 194.713 29.2694C192.852 29.2694 191.414 28.7911 190.4 27.8336C189.385 26.8769 188.877 25.4828 188.877 23.652V15.6317H186.086V12.5111H188.877V8.70358H192.842V12.5111H197.377V15.6317H192.842V23.5585C192.842 24.3698 193.042 24.9889 193.444 25.4153C193.846 25.8418 194.427 26.055 195.189 26.055C196.077 26.055 196.816 25.8261 197.409 25.3684L198.519 28.1457Z" fill="#121E2A"/>
</g>
<g id="g46">
<path id="path48" d="M210.364 25.7585C211.136 25.3111 211.68 24.6715 211.997 23.8392V21.9044H207.906C205.623 21.9044 204.481 22.6429 204.481 24.1199C204.481 24.8274 204.766 25.3893 205.337 25.8051C205.908 26.2216 206.701 26.4295 207.716 26.4295C208.709 26.4295 209.592 26.206 210.364 25.7585ZM213.979 13.9621C215.301 15.1377 215.962 16.911 215.962 19.2828V29.0507H212.219V27.0223C211.733 27.7508 211.04 28.3074 210.142 28.6919C209.243 29.0767 208.16 29.2693 206.891 29.2693C205.623 29.2693 204.513 29.0557 203.561 28.6297C202.61 28.2032 201.875 27.6105 201.357 26.8506C200.839 26.0916 200.58 25.2333 200.58 24.2758C200.58 22.778 201.145 21.5768 202.277 20.6716C203.408 19.7665 205.189 19.3141 207.621 19.3141H211.997V19.0643C211.997 17.8996 211.643 17.0048 210.935 16.3804C210.226 15.7564 209.175 15.4443 207.779 15.4443C206.828 15.4443 205.892 15.5901 204.972 15.8811C204.053 16.1729 203.276 16.5784 202.641 17.0983L201.087 14.2585C201.975 13.5928 203.043 13.0833 204.291 12.7292C205.538 12.3757 206.859 12.1987 208.255 12.1987C210.75 12.1987 212.658 12.7868 213.979 13.9621Z" fill="#121E2A"/>
</g>
<path id="path50" d="M221.036 5.89501H225V29.0508H221.036V5.89501Z" fill="#121E2A"/>
<g id="g52">
<path id="path54" d="M28.6718 1.50151C26.1754 0.505325 23.5382 0 20.8333 0C18.1283 0 15.4911 0.505325 12.9948 1.50151C12.6134 1.65355 12.2375 1.81618 11.8679 1.98941C11.2209 2.29235 11.073 3.13388 11.5796 3.63248L13.3831 5.4071C13.6784 5.69763 14.1231 5.78806 14.5085 5.62998C18.5091 3.98839 23.0422 3.97404 27.0521 5.58693C27.5029 5.76825 28.0201 5.6662 28.3645 5.32738L29.9132 3.80343C30.5088 3.21736 30.3278 2.22744 29.5628 1.88065C29.2695 1.74774 28.9724 1.62132 28.6718 1.50151ZM30.5484 34.97C30.0393 34.469 29.2553 34.3524 28.6222 34.69C26.2579 35.9506 23.5976 36.6199 20.8333 36.6199C18.0531 36.6199 15.3779 35.9429 13.0036 34.6681C12.4 34.3441 11.6531 34.4438 11.1669 34.9221L10.1621 35.9109C9.44391 36.6174 9.60444 37.803 10.4859 38.2994C11.2906 38.7524 12.1276 39.1526 12.9948 39.4986C15.4911 40.4948 18.1283 41 20.8333 41C23.5382 41 26.1754 40.4948 28.6718 39.4986C29.5013 39.1676 30.3033 38.7871 31.0756 38.3581C32.013 37.8374 32.1803 36.5758 31.419 35.8267L30.5484 34.97Z" fill="#267AB5"/>
</g>
<g id="g56">
<path id="path58" d="M41.6667 20.5001C41.6667 23.1617 41.1532 25.7567 40.1407 28.2132C39.4042 30.0009 38.4251 31.6591 37.218 33.1656C36.6994 33.8128 35.7202 33.8642 35.128 33.2815L33.9558 32.1281C33.4561 31.6364 33.4079 30.8573 33.8388 30.3063C36.0293 27.5059 37.2153 24.0927 37.2153 20.5001C37.2153 17.3428 36.2992 14.3235 34.59 11.7372L23.9115 22.2445C22.2115 23.9173 19.4552 23.9173 17.7552 22.2445L7.07975 11.7398C3.33808 17.4247 3.60324 24.9378 7.87454 30.3633C8.27998 30.8783 8.23935 31.6076 7.77118 32.0683L6.46296 33.3558C5.91111 33.899 5.00139 33.8487 4.51505 33.248C3.27743 31.7197 2.27592 30.0335 1.52592 28.2132C0.513425 25.7567 0 23.1617 0 20.5001C0 17.8384 0.513425 15.2434 1.52592 12.7869C2.14178 11.2916 2.92754 9.88743 3.87419 8.58614C4.53877 7.67343 5.28264 6.81118 6.10197 6.00439L6.10926 5.99721C6.50428 5.60874 7.14456 5.60885 7.53947 5.99744L9.99375 8.41291L13.7576 12.1166C17.6654 15.9618 24.0013 15.9618 27.909 12.1166L31.6729 8.41291L34.1272 5.99744C34.5221 5.60885 35.1624 5.60874 35.5574 5.99721L35.5647 6.00439C36.384 6.81118 37.1279 7.67343 37.7925 8.58614C38.7391 9.88743 39.5249 11.2916 40.1407 12.7869C41.1532 15.2434 41.6667 17.8384 41.6667 20.5001Z" fill="#121E2A"/>
</g>
</g>
</g>
</g>
</g>
</g>
</g>
<defs>
<clipPath id="clip0_25_27">
<rect width="225" height="41" fill="white"/>
</clipPath>
</defs>
</svg>
