<svg width="160" height="27" viewBox="0 0 160 27" fill="none" xmlns="http://www.w3.org/2000/svg">
<g id="OpenStack-Logo-Horizontal 2" clip-path="url(#clip0_99_78)">
<path id="Vector" d="M26.346 1.95702e-06H2.70986C1.99435 0.00167173 1.30866 0.272379 0.802723 0.752927C0.296784 1.23347 0.0117678 1.88475 0.0100098 2.56435V8.6037H6.56821V7.61717C6.56909 7.24928 6.72334 6.89669 6.99723 6.63655C7.27111 6.37642 7.64233 6.2299 8.02965 6.22906H21.0362C21.4232 6.2299 21.7941 6.37652 22.0674 6.63675C22.3408 6.89698 22.4943 7.24957 22.4943 7.61717V8.6037H29.0558V2.56435C29.0541 1.88311 28.7677 1.2304 28.2596 0.749579C27.7515 0.26876 27.0632 -0.000838036 26.346 1.95702e-06Z" fill="#ED1944"/>
<path id="Vector_2" d="M22.4843 19.3828C22.4843 19.7504 22.3308 20.103 22.0574 20.3633C21.7841 20.6235 21.4132 20.7701 21.0262 20.7709H8.01964C7.63232 20.7701 7.2611 20.6236 6.98722 20.3634C6.71333 20.1033 6.55907 19.7507 6.55819 19.3828V18.3963H0V24.4357C0.001758 25.1152 0.286769 25.7665 0.792708 26.2471C1.29865 26.7276 1.98434 26.9983 2.69985 27H26.336C27.0515 26.9983 27.7372 26.7276 28.2431 26.2471C28.7491 25.7665 29.0341 25.1152 29.0358 24.4357V18.3963H22.4843V19.3828Z" fill="#ED1944"/>
<path id="Vector_3" d="M6.5582 10.3839H0V16.613H6.5582V10.3839Z" fill="#ED1944"/>
<path id="Vector_4" d="M29.0457 10.3839H22.4875V16.613H29.0457V10.3839Z" fill="#ED1944"/>
<path id="Vector_5" d="M160 18.7346C160.001 18.3873 159.893 18.0475 159.69 17.7585C159.487 17.4694 159.199 17.244 158.861 17.1108C158.523 16.9775 158.151 16.9425 157.793 17.0101C157.434 17.0777 157.104 17.2449 156.846 17.4906C156.587 17.7362 156.411 18.0492 156.34 18.3899C156.269 18.7306 156.306 19.0837 156.446 19.4045C156.586 19.7253 156.824 19.9993 157.128 20.1919C157.432 20.3845 157.79 20.487 158.156 20.4863C158.644 20.4855 159.113 20.3007 159.459 19.9724C159.804 19.644 159.999 19.1989 160 18.7346ZM158.156 20.0563C157.879 20.0569 157.609 19.9797 157.379 19.8344C157.15 19.689 156.97 19.4821 156.864 19.2399C156.758 18.9977 156.73 18.7311 156.784 18.4738C156.838 18.2165 156.971 17.9801 157.166 17.7946C157.361 17.6092 157.61 17.4829 157.881 17.4319C158.152 17.3809 158.433 17.4074 158.688 17.508C158.943 17.6087 159.16 17.779 159.313 17.9974C159.466 18.2157 159.548 18.4723 159.547 18.7346C159.547 19.0852 159.401 19.4213 159.14 19.6692C158.879 19.9171 158.525 20.0563 158.156 20.0563Z" fill="#4E4540"/>
<path id="Vector_6" d="M158.848 18.4152C158.852 18.3425 158.84 18.2699 158.813 18.2016C158.787 18.1332 158.747 18.0704 158.695 18.0168C158.629 17.9593 158.551 17.9151 158.466 17.8868C158.382 17.8586 158.292 17.8469 158.202 17.8524H157.537V19.5694H157.913V19.0065H158.146L158.479 19.5694H158.908L158.525 18.937C158.629 18.8923 158.716 18.8182 158.774 18.7248C158.832 18.6313 158.858 18.5232 158.848 18.4152ZM158.469 18.4152C158.471 18.4515 158.465 18.4878 158.451 18.5216C158.436 18.5553 158.415 18.5857 158.387 18.6104C158.359 18.6352 158.325 18.6538 158.289 18.6649C158.252 18.6759 158.214 18.6793 158.176 18.6745H157.899V18.156H158.166C158.359 18.156 158.469 18.2413 158.469 18.4121V18.4152Z" fill="#4E4540"/>
<path id="Vector_7" d="M49.1731 13.6186V13.3814C49.1731 9.23608 46.3102 6.22589 42.4152 6.22589C38.5202 6.22589 35.604 9.28667 35.604 13.4067V13.647C35.604 17.7924 38.467 20.7772 42.3619 20.7772C46.2569 20.7772 49.1731 17.7386 49.1731 13.6186ZM38.7466 13.5743V13.413C38.7466 10.7981 40.1648 8.87245 42.3619 8.87245C44.5025 8.87245 46.0239 10.8265 46.0239 13.4415V13.5996C46.0239 16.2145 44.6057 18.1686 42.4085 18.1686C40.2746 18.1623 38.7466 16.1797 38.7466 13.5743Z" fill="#4E4540"/>
<path id="Vector_8" d="M64.1306 13.6723V13.3024C64.1306 8.57523 61.3508 6.22589 58.4013 6.22589C56.2907 6.22589 55.009 7.38633 54.0935 8.73333V6.48833H50.9509V24.4736H54.0935V18.3741C54.9824 19.6136 56.2607 20.7488 58.4013 20.7488C61.3775 20.7488 64.1306 18.3741 64.1306 13.6723ZM54.0369 13.6186V13.3561C54.0369 10.6084 55.6482 8.86612 57.5391 8.86612C59.43 8.86612 60.9613 10.5831 60.9613 13.3814V13.6186C60.9613 16.4201 59.4599 18.1085 57.5391 18.1085C55.6182 18.1085 54.0369 16.3663 54.0369 13.6186Z" fill="#4E4540"/>
<path id="Vector_9" d="M77.7429 18.6113L76.1051 16.7615C75.1296 17.6595 74.1076 18.2414 72.7128 18.2414C70.7919 18.2414 69.2639 16.9766 68.9843 14.6241H78.2157C78.2456 14.2004 78.2456 13.7767 78.2456 13.5933C78.2456 9.39417 76.1317 6.22589 72.1269 6.22589C68.5115 6.22589 65.845 9.23608 65.845 13.4352V13.647C65.845 18.0295 68.7912 20.7772 72.573 20.7772C73.5481 20.7911 74.5149 20.6048 75.4072 20.231C76.2995 19.8571 77.0962 19.3047 77.7429 18.6113ZM72.1269 8.73333C73.9612 8.73333 75.0198 10.3459 75.1862 12.5625H68.9576C69.1673 10.1847 70.4024 8.73333 72.1269 8.73333Z" fill="#4E4540"/>
<path id="Vector_10" d="M87.477 6.22589C85.4796 6.22589 84.2812 7.30727 83.4456 8.54993V6.48833H80.303V20.4863H83.4456V12.0091C83.4456 10.0803 84.5841 8.91988 86.2253 8.91988C87.8665 8.91988 88.8686 10.0013 88.8686 11.9554V20.4927H92.0079V11.1111C92.0012 8.12622 90.3067 6.22589 87.477 6.22589Z" fill="#4E4540"/>
<path id="Vector_11" d="M104.668 16.4991V16.4707C104.668 14.2794 102.944 13.2771 100.673 12.3C98.9489 11.5602 97.7837 11.0827 97.7837 10.1594V10.0962C97.7837 9.33097 98.4761 8.72387 99.6446 8.72387C100.813 8.72387 102.035 9.25192 103.147 9.96652L104.478 7.77212C103.084 6.81887 101.416 6.29368 99.6979 6.26703C96.9448 6.26703 94.8308 7.848 94.8308 10.3618V10.4124C94.8308 12.7079 96.6651 13.6597 98.8623 14.5577C100.613 15.2691 101.755 15.7181 101.755 16.7236V16.7489C101.755 17.6216 101.003 18.2825 99.6979 18.2825C98.3929 18.2825 96.9714 17.6722 95.6365 16.6446L94.165 18.7821C95.6979 20.0148 97.633 20.7053 99.6413 20.7362C102.458 20.7488 104.668 19.2437 104.668 16.4991Z" fill="#4E4540"/>
<path id="Vector_12" d="M114.396 20.0912V17.6343C113.874 17.8973 113.292 18.0331 112.701 18.0296C111.702 18.0296 111.116 17.5806 111.116 16.4992V9.04959H114.442V6.4884H111.113V2.71301H107.971V6.4884H106.356L106.875 9.04959H107.971V17.1063C107.971 19.8256 109.612 20.6983 111.779 20.6983C112.691 20.7105 113.592 20.5015 114.396 20.0912Z" fill="#4E4540"/>
<path id="Vector_13" d="M126.427 7.75628C125.481 6.83299 124.007 6.33023 122.099 6.33023C120.406 6.32124 118.736 6.70206 117.232 7.44009L118.121 9.81788C119.227 9.28888 120.442 8.99946 121.68 8.97047C123.677 8.97047 124.849 9.94752 124.849 11.8162V12.398C123.76 12.0293 122.612 11.8421 121.457 11.8447C118.344 11.8447 116.23 13.3213 116.23 16.3315V16.4643C116.23 19.1868 118.287 20.7425 120.734 20.7425C121.537 20.7733 122.335 20.6075 123.051 20.2608C123.767 19.9142 124.377 19.3984 124.822 18.7631V20.48H127.908V11.7973C127.908 10.055 127.426 8.67958 126.427 7.75628ZM124.879 15.7877C124.879 17.3686 123.487 18.5354 121.68 18.507C120.318 18.4817 119.289 17.688 119.289 16.2936V16.2398C119.289 14.76 120.345 13.8905 122.152 13.8905C123.087 13.8861 124.013 14.0559 124.879 14.3901V15.7877Z" fill="#4E4540"/>
<path id="Vector_14" d="M141.264 18.6619L139.57 16.6825C138.708 17.5015 137.845 18.1086 136.574 18.1086C134.43 18.1086 132.912 16.2873 132.912 13.568V13.4352C132.912 10.7918 134.413 8.91993 136.474 8.91993C137.805 8.91993 138.668 9.55232 139.447 10.3175L141.198 8.12627C140.598 7.50884 139.866 7.02019 139.051 6.69301C138.237 6.36583 137.358 6.20766 136.474 6.22909C132.609 6.22909 129.742 9.23929 129.742 13.4099V13.6755C129.742 17.8493 132.526 20.7805 136.361 20.7805C137.293 20.8031 138.22 20.6241 139.069 20.2571C139.918 19.8901 140.669 19.3447 141.264 18.6619Z" fill="#4E4540"/>
<path id="Vector_15" d="M150.882 13.2202L148.675 15.4715L151.634 20.4863H155.276L150.882 13.2202Z" fill="#4E4540"/>
<path id="Vector_16" d="M151.411 6.48829L146.378 12.6415V1.4165H143.238V20.4863H146.378V16.4453L155.136 6.48829H151.411Z" fill="#4E4540"/>
</g>
<defs>
<clipPath id="clip0_99_78">
<rect width="160" height="27" fill="white"/>
</clipPath>
</defs>
</svg>
